<?xml version="1.0" standalone="no"?>
<!DOCTYPE svg PUBLIC "-//W3C//DTD SVG 20010904//EN"
 "http://www.w3.org/TR/2001/REC-SVG-20010904/DTD/svg10.dtd">
<svg version="1.0" xmlns="http://www.w3.org/2000/svg"
 width="149.000000pt" height="148.000000pt" viewBox="0 0 149.000000 148.000000"
 preserveAspectRatio="xMidYMid meet">

<g transform="translate(0.000000,148.000000) scale(0.100000,-0.100000)"
fill="#000000" stroke="none">
<path d="M581 1440 c-95 -25 -169 -59 -245 -114 -67 -47 -160 -143 -189 -193
l-17 -31 65 -36 c36 -20 69 -36 73 -36 4 0 24 22 45 50 46 62 124 125 201 161
55 26 94 37 199 54 l37 6 0 79 0 80 -47 -1 c-27 0 -81 -9 -122 -19z"/>
<path d="M760 1376 l0 -86 38 0 c54 0 143 -25 211 -60 64 -32 171 -124 198
-171 10 -16 22 -29 28 -29 6 0 11 -8 12 -17 0 -10 13 -52 29 -93 24 -65 27
-89 27 -180 0 -101 -12 -153 -57 -260 -5 -11 11 -26 61 -54 66 -38 67 -39 83
-18 9 11 29 58 45 104 36 107 45 265 21 377 -14 69 -68 201 -81 201 -3 0 -30
-14 -60 -31 -30 -17 -55 -29 -55 -26 0 3 25 20 55 37 30 17 55 35 55 38 0 4
-8 19 -18 33 -117 173 -315 292 -525 314 l-67 7 0 -86z"/>
<path d="M564 1177 c-235 -135 -274 -158 -274 -162 0 -4 409 -240 442 -255 21
-10 48 3 253 120 127 72 231 133 232 134 4 4 -455 266 -465 266 -5 0 -89 -46
-188 -103z m44 -143 l39 -77 39 69 c31 54 45 70 65 72 23 3 30 -5 64 -69 l38
-73 39 77 c37 74 40 77 73 77 34 0 34 -1 24 -27 -6 -16 -31 -68 -57 -116 -68
-130 -88 -134 -143 -32 -19 36 -36 65 -39 65 -3 0 -20 -29 -38 -65 -35 -66
-62 -86 -88 -64 -15 13 -76 127 -107 202 l-16 37 34 0 c33 0 37 -3 73 -76z"/>
<path d="M100 1043 c-72 -163 -87 -322 -45 -482 16 -63 61 -171 71 -171 10 0
134 71 134 78 0 3 -12 35 -27 71 -25 60 -28 77 -28 196 0 113 3 138 23 190 13
33 26 67 28 75 4 10 -15 27 -59 53 -35 20 -67 37 -70 37 -3 0 -15 -21 -27 -47z"/>
<path d="M280 733 l0 -268 226 -130 c123 -71 229 -131 234 -133 6 -2 10 99 10
265 l0 268 -226 130 c-125 72 -231 132 -235 133 -5 2 -9 -117 -9 -265z m250
28 c105 -59 105 -59 108 -100 2 -23 0 -41 -3 -41 -4 0 -51 25 -105 55 -54 30
-103 55 -109 55 -7 0 -11 -28 -11 -79 0 -92 -7 -84 143 -166 86 -48 87 -49 87
-87 0 -21 -3 -38 -6 -38 -11 0 -179 93 -213 118 -53 39 -71 91 -71 205 0 54 5
107 10 118 17 32 58 22 170 -40z"/>
<path d="M988 869 l-228 -131 0 -270 0 -270 33 19 c17 10 121 70 229 132 135
79 198 121 202 135 9 32 7 516 -1 516 -5 0 -110 -59 -235 -131z m111 -205 c33
-64 61 -122 61 -130 0 -7 -10 -16 -22 -20 -21 -6 -40 9 -51 40 -3 7 -30 -2
-71 -24 -62 -33 -68 -38 -87 -90 -18 -51 -53 -90 -66 -76 -6 6 125 384 140
404 20 26 36 9 96 -104z"/>
<path d="M996 633 c-9 -26 -16 -48 -16 -50 0 -3 60 25 68 32 4 4 -27 65 -32
65 -2 0 -11 -21 -20 -47z"/>
<path d="M200 419 c-36 -22 -64 -45 -62 -52 8 -28 91 -124 151 -173 115 -96
271 -161 396 -166 l60 -3 0 80 0 80 -65 6 c-131 14 -289 104 -370 213 -22 31
-42 56 -43 55 -1 0 -31 -19 -67 -40z"/>
<path d="M1204 418 c-72 -104 -215 -196 -339 -219 -33 -6 -70 -13 -82 -15 -22
-4 -23 -9 -23 -86 l0 -81 65 7 c208 21 418 148 530 319 21 33 20 34 -62 80
l-62 35 -27 -40z"/>
</g>
</svg>
